<?xml version="1.0" standalone="no"?>
<!DOCTYPE svg PUBLIC "-//W3C//DTD SVG 20010904//EN"
 "http://www.w3.org/TR/2001/REC-SVG-20010904/DTD/svg10.dtd">
<svg version="1.0" xmlns="http://www.w3.org/2000/svg"
 width="72.000000pt" height="72.000000pt" viewBox="0 0 72.000000 72.000000"
 preserveAspectRatio="xMidYMid meet">
<metadata>
Created by potrace 1.14, written by Peter Selinger 2001-2017
</metadata>
<g transform="translate(0.000000,72.000000) scale(0.100000,-0.100000)"
fill="#000000" stroke="none">
<path d="M259 705 c-110 -39 -176 -97 -223 -195 -27 -57 -31 -75 -31 -151 1
-76 4 -93 33 -151 38 -78 101 -140 180 -176 82 -38 203 -38 284 0 79 37 142
98 181 177 29 59 32 74 32 151 -1 71 -5 95 -29 146 -57 126 -178 206 -316 210
-41 1 -91 -4 -111 -11z"/>
</g>
</svg>
